# xmcd
#
# Track frame offsets:
#	150
#	11745
#	23942
#	34241
#	44501
#	56280
#	66685
#	79332
#	88350
#	100353
#	112403
#	122668
#	133278
#
# Disc length: 1945 seconds
#
# Revision: 1
# Processed by: cddbd v1.5.2PL0 Copyright (c) Steve Scherf et al.
# Submitted via: audiograbber 1.83.01
#
DISCID=c807970d
DTITLE=Ray Charles - The best of
DYEAR=1900
DGENRE=
TTITLE0=C.C. Rider
TTITLE1=Honey, Honey
TTITLE2=Ain't that fine
TTITLE3=Sitting on top of the world
TTITLE4=If i give you my love
TTITLE5=Hey now
TTITLE6=Blues before sunrise
TTITLE7=All to myself alone
TTITLE8=I love you, I love you
TTITLE9=Mess around
TTITLE10=I've had my fun (going down slow)
TTITLE11=The ego song
TTITLE12=The snow is falling
EXTD=
EXTT0=
EXTT1=
EXTT2=
EXTT3=
EXTT4=
EXTT5=
EXTT6=
EXTT7=
EXTT8=
EXTT9=
EXTT10=
EXTT11=
EXTT12=
PLAYORDER=
